<?xml version="1.0" encoding="UTF-8"?>
<svg id="Layer_4" data-name="Layer 4" xmlns="http://www.w3.org/2000/svg" viewBox="0 0 14.64 28.21">
  <defs>
    <style>
      .cls-1 {
        fill: #f4f4f4;
        stroke-width: 0px;
      }
    </style>
  </defs>
  <path class="cls-1" d="m11.41,4.74c.94-.05,1.89-.04,2.84-.05.13,0,.25,0,.39,0V1l-2.51.38L13.45.1c-.41-.03-.82-.06-1.22-.1h-2.15c-.32.06-.65.1-.97.17-1.2.25-2.26.76-3.11,1.66-1.12,1.18-1.58,2.63-1.65,4.22-.02.41-.02.82-.03,1.23l1.64.51-1.64.19c0,.67,0,1.34,0,2.01,0,.11,0,.21,0,.35h-1.36l.56,1.94-1.8-1.94H0v5.02h4.33v4.49l2.2,1.52-2.2,1.66v5.18h5.19v-2.19l-1.49.5,1.49-1.37v-8.13l-1.69-1.13,1.69.78v-1.32h4.31c.04-.33.08-.65.13-.97l-2.03-.8,2.09.27c.15-1.17.3-2.34.46-3.53h-4.95c0-1.27-.04-2.5.01-3.73.05-1.17.7-1.79,1.88-1.86Z"/>
</svg>