<?xml version="1.0" encoding="UTF-8"?>
<svg id="Layer_4" data-name="Layer 4" xmlns="http://www.w3.org/2000/svg" viewBox="0 0 23.52 23.59">
  <defs>
    <style>
      .cls-1 {
        fill: #f4f4f4;
        stroke-width: 0px;
      }
    </style>
  </defs>
  <path class="cls-1" d="m11.79,5.75c-3.33-.02-6.06,2.7-6.07,6.05-.01,3.34,2.71,6.06,6.05,6.07.96,0,1.86-.23,2.67-.63v-1.2s.44.27.97.6c1.46-1.11,2.42-2.86,2.42-4.84,0-3.34-2.69-6.03-6.04-6.05Zm-.02,9.98c-.79,0-1.51-.23-2.13-.63l-1.79.33.75-1.32c-.47-.65-.75-1.44-.75-2.3,0-1.44.77-2.69,1.92-3.37l-.26-1.03.65.83c.49-.22,1.03-.35,1.61-.35,2.18,0,3.94,1.75,3.93,3.94,0,2.17-1.76,3.91-3.93,3.91Z"/>
  <path class="cls-1" d="m23.52,6.96c-.05-.41-.08-.82-.14-1.23-.35-2.29-1.49-4.03-3.65-5.01-.59-.27-1.21-.43-1.84-.53l-2.19,1.46.18-1.59c-2.88-.1-5.76-.07-8.65,0-1.22.03-2.42.19-3.53.72C2.03,1.57.98,2.85.45,4.53l1.01.98-1.28.18c-.02.12-.05.25-.06.37l.49.42-.54.17C.02,7.32,0,7.99,0,8.66c0,2.54.01,5.08.04,7.62.01,1.23.17,2.45.71,3.58.19.4.41.75.65,1.08l.72-.17-.44.52c.35.41.74.76,1.18,1.05l2.15-.29-1.35.75c.41.19.85.35,1.33.46.92.23,1.86.26,2.81.29.14,0,.29.02.43.04h7.09c.56-.03,1.11-.06,1.67-.09,1.38-.09,2.66-.43,3.78-1.21l-.67-1.32s.56.29,1.39.73c1.02-.98,1.6-2.2,1.84-3.6l-1.35-.23,1.47-.87c0-.1.02-.2.03-.29,0-.08.03-.16.04-.25v-5.17l-1.54-.35,1.54-.16v-3.8Zm-2.13,8.97c-.01.75-.07,1.53-.25,2.26-.44,1.8-1.67,2.85-3.48,3.08-1.33.17-2.68.15-4.02.2-.63.02-1.26,0-1.89,0,0,.01,0,.02,0,.04-1.69-.04-3.38-.07-5.06-.13-.85-.03-1.68-.21-2.42-.65-1.19-.7-1.82-1.78-1.96-3.11-.13-1.31-.16-2.63-.18-3.95,0-.74,0-1.49,0-2.23l-1.37-1.05h1.37c0-.82.02-1.63.04-2.45.02-.82.07-1.65.25-2.44.4-1.77,1.58-2.82,3.35-3.11.5-.08,1-.13,1.5-.16V.95l.49,1.25c.37-.01.74-.02,1.1-.03,2.21-.03,4.42-.02,6.63.01.82.01,1.66.06,2.47.22,1.88.38,3.06,1.66,3.3,3.56.12.94.16,1.9.17,2.85.01,2.37,0,4.74-.03,7.11Z"/>
  <path class="cls-1" d="m18.04,4.09c-.67.01-1.22.48-1.35,1.11l.35.43-.37-.02c.06.74.67,1.31,1.43,1.3.11,0,.21-.02.31-.04l.19-.67.48.29c.26-.26.41-.62.41-1.01,0-.79-.64-1.41-1.44-1.39Z"/>
</svg>