<?xml version="1.0" encoding="UTF-8"?>
<svg id="Layer_4" data-name="Layer 4" xmlns="http://www.w3.org/2000/svg" viewBox="0 0 31.35 22.16">
  <defs>
    <style>
      .cls-1 {
        fill: #f4f4f4;
        stroke-width: 0px;
      }
    </style>
  </defs>
  <path class="cls-1" d="m25.72,5.57l5.2-1.34c-.63-1.73-1.99-3.09-3.66-3.76l-5.6,3.44L24.16,0c-5.84,0-11.69,0-17.53,0,0,0-.01,0-.02,0l-2.03,3.49-1.82-2.32c-.73.53-1.37,1.22-1.9,2.1C.26,4.29,0,5.4,0,6.57c0,2.33,0,4.66,0,6.99l2.68-1.35L.11,16.78c.18,1.03.59,1.96,1.18,2.76l2.72-2.69.45,4.97c.21.07.43.14.66.19.48.11.99.15,1.49.15,2.7,0,5.41,0,8.11,0l.96-3.32.82,3.32c2.74,0,5.49,0,8.23,0,.86,0,1.68-.15,2.42-.43l-1.52-1.65,3.18.73c.14-.11.28-.22.41-.34l-1.52-2.04,2.29,1.2c.13-.17.25-.35.36-.53l-1.81-2.24,2.27,1.36c.16-.37.29-.76.39-1.17.08-.32.11-.66.17-.99V6.44l-5.63-.86Zm-9.32,7.89c-1.45.69-2.89,1.39-4.34,2.08-.5.24-.7.11-.7-.45,0-1.34,0-2.67,0-4.01,0-1.34,0-2.67,0-4.01,0-.53.22-.67.69-.43.76.38,1.51.77,2.27,1.15l1.91-1.59s-.49.97-1.02,2.05c1.68.85,3.37,1.7,5.05,2.56.16.08.34.27.36.43,0,.12-.2.31-.36.39-.9.43-1.8.86-2.69,1.29l3.05,3.75-4.21-3.2Z"/>
</svg>